<svg width="93" height="33" viewBox="0 0 93 33" fill="none" xmlns="http://www.w3.org/2000/svg">
<path d="M0 17.7951C0 17.1906 0.115478 16.6234 0.346433 16.0935C0.577389 15.5637 0.889858 15.1018 1.28384 14.7078C1.68462 14.307 2.14992 13.9912 2.67976 13.7602C3.2096 13.5293 3.7768 13.4138 4.38136 13.4138H11.0859V16.3381H4.38136C4.17758 16.3381 3.98738 16.3754 3.81076 16.4502C3.63415 16.5249 3.47792 16.6302 3.34206 16.766C3.213 16.8951 3.11111 17.0479 3.03638 17.2245C2.96166 17.4012 2.9243 17.5914 2.9243 17.7951C2.9243 17.9989 2.96166 18.1925 3.03638 18.3759C3.11111 18.5525 3.213 18.7088 3.34206 18.8446C3.47792 18.9737 3.63415 19.0756 3.81076 19.1503C3.98738 19.225 4.17758 19.2624 4.38136 19.2624H7.30566C7.91022 19.2624 8.47742 19.3779 9.00726 19.6088C9.54389 19.833 10.0092 20.1455 10.4032 20.5462C10.804 20.9402 11.1164 21.4055 11.3406 21.9422C11.5715 22.472 11.687 23.0392 11.687 23.6437C11.687 24.2483 11.5715 24.8155 11.3406 25.3453C11.1164 25.8752 10.804 26.3405 10.4032 26.7413C10.0092 27.1353 9.54389 27.4477 9.00726 27.6787C8.47742 27.9096 7.91022 28.0251 7.30566 28.0251H0.815137V25.1008H7.30566C7.50945 25.1008 7.69965 25.0634 7.87626 24.9887C8.05287 24.914 8.20571 24.8121 8.33477 24.683C8.47063 24.5472 8.57592 24.391 8.65064 24.2143C8.72536 24.0377 8.76272 23.8475 8.76272 23.6437C8.76272 23.44 8.72536 23.2498 8.65064 23.0732C8.57592 22.8965 8.47063 22.7437 8.33477 22.6146C8.20571 22.4788 8.05287 22.3735 7.87626 22.2988C7.69965 22.2241 7.50945 22.1867 7.30566 22.1867H4.38136C3.7768 22.1867 3.2096 22.0712 2.67976 21.8403C2.14992 21.6093 1.68462 21.2968 1.28384 20.9029C0.889858 20.5021 0.577389 20.0368 0.346433 19.5069C0.115478 18.9703 0 18.3997 0 17.7951Z" fill="#0D4937"/>
<path d="M15.9971 28.0251H13.2154V17.1125H13.8879L14.8049 18.1721C15.2532 17.7646 15.7593 17.4521 16.3231 17.2347C16.8937 17.0106 17.4881 16.8985 18.1062 16.8985C18.7719 16.8985 19.4003 17.0276 19.9912 17.2857C20.5822 17.537 21.0985 17.8868 21.54 18.3352C21.9815 18.7767 22.328 19.2964 22.5793 19.8941C22.8374 20.4851 22.9665 21.1168 22.9665 21.7893V28.0251H20.1848V21.7893C20.1848 21.504 20.1305 21.2357 20.0218 20.9844C19.9131 20.7262 19.7637 20.5021 19.5735 20.3119C19.3833 20.1217 19.1625 19.9722 18.9112 19.8636C18.6598 19.7549 18.3915 19.7005 18.1062 19.7005C17.8141 19.7005 17.539 19.7549 17.2809 19.8636C17.0228 19.9722 16.7986 20.1217 16.6084 20.3119C16.4182 20.5021 16.2688 20.7262 16.1601 20.9844C16.0514 21.2357 15.9971 21.504 15.9971 21.7893V28.0251Z" fill="#0D4937"/>
<path d="M35.5196 28.0251H34.8471L33.767 26.5273C33.5021 26.765 33.2202 26.9892 32.9213 27.1998C32.6292 27.4036 32.3202 27.5836 31.9941 27.7398C31.6681 27.8893 31.3318 28.0081 30.9854 28.0964C30.6457 28.1847 30.2993 28.2289 29.9461 28.2289C29.1785 28.2289 28.4551 28.0998 27.7758 27.8417C27.1033 27.5836 26.5123 27.21 26.0029 26.7209C25.5002 26.225 25.1028 25.6205 24.8107 24.9072C24.5186 24.194 24.3726 23.3822 24.3726 22.472C24.3726 21.6229 24.5186 20.8451 24.8107 20.1387C25.1028 19.4254 25.5002 18.8141 26.0029 18.3046C26.5123 17.7951 27.1033 17.4012 27.7758 17.1227C28.4551 16.8374 29.1785 16.6947 29.9461 16.6947C30.2993 16.6947 30.6491 16.7389 30.9956 16.8272C31.342 16.9155 31.6783 17.0377 32.0043 17.194C32.3304 17.3502 32.6394 17.5336 32.9315 17.7442C33.2304 17.9548 33.5089 18.1823 33.767 18.4269L34.8471 17.1328H35.5196V28.0251ZM32.7176 22.472C32.7176 22.0916 32.6428 21.7248 32.4934 21.3716C32.3507 21.0115 32.1537 20.6957 31.9024 20.424C31.6511 20.1455 31.3556 19.9247 31.016 19.7617C30.6831 19.5918 30.3265 19.5069 29.9461 19.5069C29.5657 19.5069 29.2057 19.5715 28.866 19.7005C28.5332 19.8296 28.2411 20.0198 27.9898 20.2711C27.7452 20.5225 27.5516 20.8349 27.409 21.2085C27.2663 21.5753 27.195 21.9965 27.195 22.472C27.195 22.9475 27.2663 23.372 27.409 23.7456C27.5516 24.1125 27.7452 24.4215 27.9898 24.6729C28.2411 24.9242 28.5332 25.1144 28.866 25.2435C29.2057 25.3725 29.5657 25.437 29.9461 25.437C30.3265 25.437 30.6831 25.3555 31.016 25.1925C31.3556 25.0227 31.6511 24.8019 31.9024 24.5302C32.1537 24.2517 32.3507 23.9358 32.4934 23.5826C32.6428 23.2226 32.7176 22.8524 32.7176 22.472Z" fill="#0D4937"/>
<path d="M40.4512 32.1823H37.6491V17.1125H38.3216L39.4322 18.4269C39.6836 18.1891 39.9587 17.965 40.2576 17.7544C40.5564 17.5438 40.8655 17.3638 41.1848 17.2144C41.5108 17.0581 41.8471 16.9359 42.1935 16.8475C42.5399 16.7592 42.8898 16.7151 43.243 16.7151C44.0106 16.7151 44.7306 16.8543 45.4031 17.1328C46.0824 17.4046 46.6734 17.7917 47.176 18.2944C47.6855 18.7971 48.0863 19.405 48.3784 20.1183C48.6705 20.8247 48.8165 21.6093 48.8165 22.472C48.8165 23.3686 48.6705 24.177 48.3784 24.897C48.0863 25.6103 47.6855 26.2182 47.176 26.7209C46.6734 27.2168 46.0824 27.5972 45.4031 27.8621C44.7306 28.127 44.0106 28.2595 43.243 28.2595C42.9985 28.2595 42.7539 28.2323 42.5094 28.1779C42.2716 28.1236 42.0339 28.0523 41.7961 27.964C41.5652 27.8689 41.3342 27.7636 41.1033 27.6481C40.8791 27.5326 40.6617 27.4138 40.4512 27.2915V32.1823ZM46.0247 22.472C46.0247 22.0101 45.9499 21.5957 45.8005 21.2289C45.6578 20.8621 45.4609 20.553 45.2095 20.3017C44.9582 20.0436 44.6627 19.8466 44.3231 19.7107C43.9834 19.5749 43.6234 19.5069 43.243 19.5069C42.8626 19.5069 42.5026 19.5749 42.1629 19.7107C41.8301 19.8466 41.538 20.0436 41.2867 20.3017C41.0353 20.553 40.835 20.8621 40.6855 21.2289C40.5429 21.5957 40.4715 22.0101 40.4715 22.472C40.4715 22.9135 40.5429 23.3177 40.6855 23.6845C40.835 24.0513 41.0353 24.3638 41.2867 24.6219C41.538 24.88 41.8301 25.0804 42.1629 25.2231C42.5026 25.3657 42.8626 25.437 43.243 25.437C43.6234 25.437 43.9834 25.3657 44.3231 25.2231C44.6627 25.0804 44.9582 24.88 45.2095 24.6219C45.4609 24.3638 45.6578 24.0513 45.8005 23.6845C45.9499 23.3177 46.0247 22.9135 46.0247 22.472Z" fill="#0D4937"/>
<path d="M56.0494 28.0251H53.1353V16.3381H48.7437V13.4138H60.4307V16.3381H56.0494V28.0251Z" fill="#0D4937"/>
<path d="M63.5079 28.0251H60.7262V17.1125H61.3987L62.3157 18.4065C62.7641 17.9989 63.2735 17.6865 63.8441 17.4691C64.4147 17.2449 65.0057 17.1328 65.6171 17.1328H68.0726V19.9043H65.6171C65.325 19.9043 65.0499 19.9587 64.7917 20.0673C64.5336 20.176 64.3094 20.3255 64.1192 20.5157C63.929 20.7059 63.7796 20.93 63.6709 21.1881C63.5622 21.4463 63.5079 21.7214 63.5079 22.0135V28.0251Z" fill="#0D4937"/>
<path d="M72.6476 14.1474C72.6476 14.4055 72.5967 14.6467 72.4948 14.8708C72.3997 15.095 72.2672 15.292 72.0974 15.4618C71.9276 15.6248 71.7272 15.7573 71.4962 15.8592C71.2721 15.9543 71.0309 16.0018 70.7728 16.0018C70.5147 16.0018 70.2701 15.9543 70.0392 15.8592C69.815 15.7573 69.618 15.6248 69.4482 15.4618C69.2852 15.292 69.1527 15.095 69.0508 14.8708C68.9557 14.6467 68.9082 14.4055 68.9082 14.1474C68.9082 13.8961 68.9557 13.6583 69.0508 13.4342C69.1527 13.2032 69.2852 13.0062 69.4482 12.8432C69.618 12.6734 69.815 12.5409 70.0392 12.4458C70.2701 12.3439 70.5147 12.293 70.7728 12.293C71.0309 12.293 71.2721 12.3439 71.4962 12.4458C71.7272 12.5409 71.9276 12.6734 72.0974 12.8432C72.2672 13.0062 72.3997 13.2032 72.4948 13.4342C72.5967 13.6583 72.6476 13.8961 72.6476 14.1474ZM72.1687 28.0251H69.3667V17.1125H72.1687V28.0251Z" fill="#0D4937"/>
<path d="M77.1003 32.1823H74.2983V17.1125H74.9707L76.0814 18.4269C76.3327 18.1891 76.6078 17.965 76.9067 17.7544C77.2056 17.5438 77.5146 17.3638 77.8339 17.2144C78.16 17.0581 78.4962 16.9359 78.8426 16.8475C79.1891 16.7592 79.5389 16.7151 79.8921 16.7151C80.6597 16.7151 81.3798 16.8543 82.0522 17.1328C82.7315 17.4046 83.3225 17.7917 83.8252 18.2944C84.3346 18.7971 84.7354 19.405 85.0275 20.1183C85.3196 20.8247 85.4656 21.6093 85.4656 22.472C85.4656 23.3686 85.3196 24.177 85.0275 24.897C84.7354 25.6103 84.3346 26.2182 83.8252 26.7209C83.3225 27.2168 82.7315 27.5972 82.0522 27.8621C81.3798 28.127 80.6597 28.2595 79.8921 28.2595C79.6476 28.2595 79.4031 28.2323 79.1585 28.1779C78.9208 28.1236 78.683 28.0523 78.4453 27.964C78.2143 27.8689 77.9834 27.7636 77.7524 27.6481C77.5282 27.5326 77.3109 27.4138 77.1003 27.2915V32.1823ZM82.6738 22.472C82.6738 22.0101 82.5991 21.5957 82.4496 21.2289C82.307 20.8621 82.11 20.553 81.8587 20.3017C81.6073 20.0436 81.3118 19.8466 80.9722 19.7107C80.6325 19.5749 80.2725 19.5069 79.8921 19.5069C79.5117 19.5069 79.1517 19.5749 78.8121 19.7107C78.4792 19.8466 78.1871 20.0436 77.9358 20.3017C77.6845 20.553 77.4841 20.8621 77.3346 21.2289C77.192 21.5957 77.1207 22.0101 77.1207 22.472C77.1207 22.9135 77.192 23.3177 77.3346 23.6845C77.4841 24.0513 77.6845 24.3638 77.9358 24.6219C78.1871 24.88 78.4792 25.0804 78.8121 25.2231C79.1517 25.3657 79.5117 25.437 79.8921 25.437C80.2725 25.437 80.6325 25.3657 80.9722 25.2231C81.3118 25.0804 81.6073 24.88 81.8587 24.6219C82.11 24.3638 82.307 24.0513 82.4496 23.6845C82.5991 23.3177 82.6738 22.9135 82.6738 22.472Z" fill="#0D4937"/>
<ellipse cx="86.6584" cy="3.55125" rx="2.60844" ry="2.92619" transform="rotate(16.6627 86.6584 3.55125)" fill="#0D4937"/>
<path d="M82.5162 12.4933L84.1595 2.80443L89.1575 4.29958L84.8229 13.1837L82.5162 12.4933Z" fill="#0D4937"/>
<ellipse cx="83.6699" cy="12.8387" rx="1.20389" ry="1.46309" transform="rotate(16.6627 83.6699 12.8387)" fill="#0D4937"/>
<ellipse cx="90.511" cy="11.6792" rx="1.74623" ry="1.4816" transform="rotate(46.1237 90.511 11.6792)" fill="#0D4937"/>
<path d="M86.2994 14.4249L89.3005 10.4212L91.7214 12.9384L87.4166 15.5868L86.2994 14.4249Z" fill="#0D4937"/>
<ellipse cx="86.8581" cy="15.0055" rx="0.805954" ry="0.7408" transform="rotate(46.1237 86.8581 15.0055)" fill="#0D4937"/>
<ellipse cx="79.0987" cy="7.61746" rx="1.71698" ry="1.50192" transform="rotate(-17.5483 79.0987 7.61746)" fill="#0D4937"/>
<path d="M79.727 12.6702L77.462 8.13611L80.7361 7.10037L81.2381 12.1924L79.727 12.6702Z" fill="#0D4937"/>
<ellipse cx="80.482" cy="12.4302" rx="0.79245" ry="0.750959" transform="rotate(-17.5483 80.482 12.4302)" fill="#0D4937"/>
<circle cx="79.9896" cy="22.8089" r="1.49054" fill="#0D4937"/>
</svg>
