<svg width="38" height="32" viewBox="0 0 38 32" fill="none" xmlns="http://www.w3.org/2000/svg">
<path d="M0 15.7954C0 15.1909 0.115478 14.6237 0.346433 14.0938C0.577389 13.564 0.889858 13.1021 1.28384 12.7081C1.68462 12.3073 2.14992 11.9915 2.67976 11.7605C3.2096 11.5295 3.7768 11.4141 4.38136 11.4141H11.0859V14.3384H4.38136C4.17758 14.3384 3.98738 14.3757 3.81076 14.4504C3.63415 14.5252 3.47792 14.6305 3.34206 14.7663C3.213 14.8954 3.11111 15.0482 3.03638 15.2248C2.96166 15.4014 2.9243 15.5916 2.9243 15.7954C2.9243 15.9992 2.96166 16.1928 3.03638 16.3762C3.11111 16.5528 3.213 16.7091 3.34206 16.8449C3.47792 16.974 3.63415 17.0759 3.81076 17.1506C3.98738 17.2253 4.17758 17.2627 4.38136 17.2627H7.30566C7.91022 17.2627 8.47742 17.3781 9.00726 17.6091C9.54389 17.8333 10.0092 18.1457 10.4032 18.5465C10.804 18.9405 11.1164 19.4058 11.3406 19.9424C11.5715 20.4723 11.687 21.0395 11.687 21.644C11.687 22.2486 11.5715 22.8158 11.3406 23.3456C11.1164 23.8755 10.804 24.3408 10.4032 24.7415C10.0092 25.1355 9.54389 25.448 9.00726 25.679C8.47742 25.9099 7.91022 26.0254 7.30566 26.0254H0.815137V23.1011H7.30566C7.50945 23.1011 7.69965 23.0637 7.87626 22.989C8.05287 22.9143 8.20571 22.8124 8.33477 22.6833C8.47063 22.5475 8.57592 22.3912 8.65064 22.2146C8.72536 22.038 8.76272 21.8478 8.76272 21.644C8.76272 21.4402 8.72536 21.25 8.65064 21.0734C8.57592 20.8968 8.47063 20.744 8.33477 20.6149C8.20571 20.4791 8.05287 20.3738 7.87626 20.2991C7.69965 20.2243 7.50945 20.187 7.30566 20.187H4.38136C3.7768 20.187 3.2096 20.0715 2.67976 19.8405C2.14992 19.6096 1.68462 19.2971 1.28384 18.9031C0.889858 18.5024 0.577389 18.037 0.346433 17.5072C0.115478 16.9706 0 16.4 0 15.7954Z" fill="#0D4937"/>
<path d="M18.452 26.0254H15.5379V14.3384H11.1463V11.4141H22.8333V14.3384H18.452V26.0254Z" fill="#0D4937"/>
<path d="M21.2541 31.8434H18.4521V16.7736H19.1246L20.2352 18.088C20.4866 17.8502 20.7617 17.6261 21.0606 17.4155C21.3594 17.2049 21.6685 17.0249 21.9878 16.8755C22.3138 16.7192 22.6501 16.597 22.9965 16.5087C23.3429 16.4204 23.6928 16.3762 24.046 16.3762C24.8136 16.3762 25.5336 16.5155 26.2061 16.794C26.8854 17.0657 27.4764 17.4529 27.979 17.9555C28.4885 18.4582 28.8893 19.0662 29.1814 19.7794C29.4735 20.4859 29.6195 21.2704 29.6195 22.1331C29.6195 23.0298 29.4735 23.8381 29.1814 24.5581C28.8893 25.2714 28.4885 25.8793 27.979 26.382C27.4764 26.8779 26.8854 27.2583 26.2061 27.5232C25.5336 27.7881 24.8136 27.9206 24.046 27.9206C23.8015 27.9206 23.5569 27.8934 23.3124 27.8391C23.0746 27.7847 22.8369 27.7134 22.5991 27.6251C22.3682 27.53 22.1372 27.4247 21.9063 27.3092C21.6821 27.1938 21.4647 27.0749 21.2541 26.9526V31.8434ZM26.8277 22.1331C26.8277 21.6712 26.7529 21.2568 26.6035 20.89C26.4608 20.5232 26.2638 20.2141 26.0125 19.9628C25.7612 19.7047 25.4657 19.5077 25.1261 19.3718C24.7864 19.236 24.4264 19.1681 24.046 19.1681C23.6656 19.1681 23.3056 19.236 22.9659 19.3718C22.6331 19.5077 22.341 19.7047 22.0897 19.9628C21.8383 20.2141 21.6379 20.5232 21.4885 20.89C21.3459 21.2568 21.2745 21.6712 21.2745 22.1331C21.2745 22.5746 21.3459 22.9788 21.4885 23.3456C21.6379 23.7124 21.8383 24.0249 22.0897 24.283C22.341 24.5412 22.6331 24.7415 22.9659 24.8842C23.3056 25.0268 23.6656 25.0982 24.046 25.0982C24.4264 25.0982 24.7864 25.0268 25.1261 24.8842C25.4657 24.7415 25.7612 24.5412 26.0125 24.283C26.2638 24.0249 26.4608 23.7124 26.6035 23.3456C26.7529 22.9788 26.8277 22.5746 26.8277 22.1331Z" fill="#0D4937"/>
<ellipse cx="31.0527" cy="3.55125" rx="2.60844" ry="2.92619" transform="rotate(16.6627 31.0527 3.55125)" fill="#0D4937"/>
<path d="M26.9107 12.4933L28.554 2.80443L33.552 4.29958L29.2174 13.1837L26.9107 12.4933Z" fill="#0D4937"/>
<ellipse cx="28.0644" cy="12.8387" rx="1.20389" ry="1.46309" transform="rotate(16.6627 28.0644 12.8387)" fill="#0D4937"/>
<ellipse cx="34.9055" cy="11.6802" rx="1.74623" ry="1.4816" transform="rotate(46.1237 34.9055 11.6802)" fill="#0D4937"/>
<path d="M30.6939 14.4254L33.695 10.4217L36.116 12.9389L31.8112 15.5873L30.6939 14.4254Z" fill="#0D4937"/>
<ellipse cx="31.2525" cy="15.0065" rx="0.805954" ry="0.7408" transform="rotate(46.1237 31.2525 15.0065)" fill="#0D4937"/>
<ellipse cx="23.4932" cy="7.61746" rx="1.71698" ry="1.50192" transform="rotate(-17.5483 23.4932 7.61746)" fill="#0D4937"/>
<path d="M24.1214 12.6697L21.8565 8.13562L25.1305 7.09989L25.6326 12.1919L24.1214 12.6697Z" fill="#0D4937"/>
<ellipse cx="24.8766" cy="12.4307" rx="0.79245" ry="0.750959" transform="rotate(-17.5483 24.8766 12.4307)" fill="#0D4937"/>
<circle cx="24.3841" cy="22.8089" r="1.49054" fill="#0D4937"/>
</svg>
